<svg id="Слой_1" data-name="Слой 1" xmlns="http://www.w3.org/2000/svg" xmlns:xlink="http://www.w3.org/1999/xlink" viewBox="0 0 215.46 65"><defs><style>.cls-1{font-size:51.09px;fill:#06493c;font-family:Montserrat-Light, Montserrat;font-weight:300;}.cls-2{fill:url(#Безымянный_градиент_3);}.cls-3{fill:url(#Безымянный_градиент_3-2);}.cls-4{fill:url(#Безымянный_градиент_3-3);}.cls-5{fill:url(#Безымянный_градиент_3-4);}</style><linearGradient id="Безымянный_градиент_3" x1="56.94" y1="6.4" x2="14.81" y2="14.75" gradientUnits="userSpaceOnUse"><stop offset="0" stop-color="#3cb498"/><stop offset="0.44" stop-color="#27977e"/><stop offset="1" stop-color="#076c58"/></linearGradient><linearGradient id="Безымянный_градиент_3-2" x1="12.15" y1="59.89" x2="52.83" y2="50.09" xlink:href="#Безымянный_градиент_3"/><linearGradient id="Безымянный_градиент_3-3" x1="5.12" y1="12.69" x2="16.74" y2="50.46" xlink:href="#Безымянный_градиент_3"/><linearGradient id="Безымянный_градиент_3-4" x1="55.09" y1="54.67" x2="53.27" y2="11.09" xlink:href="#Безымянный_градиент_3"/></defs><text class="cls-1" transform="translate(78.98 47.55)">Opus</text><path class="cls-2" d="M57.29,8.47c-11.08-9-32.1-11.42-45.4-.53l7.29,17Z"/><path class="cls-3" d="M11,56.53c11.08,9,32.1,11.42,45.4.53L49.12,40Z"/><path class="cls-4" d="M10.12,9.36c-9,11.1-11.43,32.17-.47,45.47l17-7.28Z"/><path class="cls-5" d="M58.77,10.32,41.7,17.61l16.48,38C67.17,44.58,69.59,23.62,58.77,10.32Z"/></svg>