<svg id="Слой_1" data-name="Слой 1" xmlns="http://www.w3.org/2000/svg" xmlns:xlink="http://www.w3.org/1999/xlink" viewBox="0 0 212.33 65"><defs><style>.cls-1{fill:#06493c;}.cls-2{fill:url(#Безымянный_градиент_3);}.cls-3{fill:url(#Безымянный_градиент_3-2);}.cls-4{fill:url(#Безымянный_градиент_3-3);}.cls-5{fill:url(#Безымянный_градиент_3-4);}</style><linearGradient id="Безымянный_градиент_3" x1="55.36" y1="6.51" x2="13.41" y2="14.83" gradientUnits="userSpaceOnUse"><stop offset="0" stop-color="#3cb498"/><stop offset="0.44" stop-color="#27977e"/><stop offset="1" stop-color="#076c58"/></linearGradient><linearGradient id="Безымянный_градиент_3-2" x1="10.75" y1="59.78" x2="51.26" y2="50.01" xlink:href="#Безымянный_градиент_3"/><linearGradient id="Безымянный_градиент_3-3" x1="3.75" y1="12.77" x2="15.33" y2="50.39" xlink:href="#Безымянный_градиент_3"/><linearGradient id="Безымянный_градиент_3-4" x1="53.51" y1="54.58" x2="51.71" y2="11.18" xlink:href="#Безымянный_градиент_3"/></defs><path class="cls-1" d="M80.1,29.68c0-10.33,7.89-18.06,18.52-18.06s18.52,7.68,18.52,18.06S109.2,47.74,98.62,47.74,80.1,40,80.1,29.68Zm34.39,0c0-9-6.81-15.67-15.87-15.67S82.7,20.67,82.7,29.68s6.82,15.67,15.92,15.67S114.49,38.68,114.49,29.68Z"/><path class="cls-1" d="M151.79,34.21c0,8-5.65,13.48-13.13,13.48a11.87,11.87,0,0,1-10.78-6.26V57.35h-2.55V20.93h2.45v6.25a11.85,11.85,0,0,1,10.88-6.46C146.14,20.72,151.79,26.27,151.79,34.21Zm-2.55,0c0-6.67-4.63-11.2-10.73-11.2s-10.68,4.53-10.68,11.2,4.58,11.19,10.68,11.19S149.24,40.87,149.24,34.21Z"/><path class="cls-1" d="M182.93,20.93V47.48h-2.45V41.79c-1.73,3.71-5.34,5.9-10,5.9-6.76,0-11.09-3.82-11.09-11.25V20.93h2.55V36.24c0,6,3.2,9.16,8.75,9.16,6,0,9.71-4,9.71-10.33V20.93Z"/><path class="cls-1" d="M189.8,44.28l1.17-2a15.42,15.42,0,0,0,9.56,3.21c5.6,0,7.84-2,7.84-5,0-7.73-17.61-2-17.61-12.46,0-4,3.36-7.28,10.08-7.28,3.35,0,7,1,9.1,2.6l-1.17,2a13.67,13.67,0,0,0-8-2.39c-5.19,0-7.48,2.14-7.48,5,0,8,17.6,2.34,17.6,12.46,0,4.33-3.71,7.28-10.48,7.28C196.05,47.69,191.88,46.21,189.8,44.28Z"/><path class="cls-2" d="M55.71,8.57c-11-9-32-11.37-45.21-.53l7.26,17Z"/><path class="cls-3" d="M9.62,56.43c11,9,32,11.37,45.21.53L47.57,40Z"/><path class="cls-4" d="M8.74,9.46c-9,11.05-11.39,32-.47,45.28l17-7.25Z"/><path class="cls-5" d="M57.18,10.41l-17,7.26L56.59,55.54C65.55,44.53,68,23.66,57.18,10.41Z"/></svg>